<svg width="38" height="45" viewBox="0 0 38 45" fill="none" xmlns="http://www.w3.org/2000/svg">
<path d="M37.0492 9.7541L27.6229 0.327869C27.541 0.245902 27.459 0.163934 27.2951 0.0819672C27.0492 0 26.8033 0 26.5574 0.0819672C26.3115 0.163934 26.1475 0.409836 26.0656 0.573771C25.9836 0.655738 25.9836 0.819672 25.9836 0.983607V8.52459C25.9836 10.1639 27.2951 11.4754 28.9344 11.4754H35.4918V33.1148C35.4918 34.0984 34.6721 34.918 33.6885 34.918H11.6393C10.6557 34.918 9.83606 34.0984 9.83606 33.1148V3.77049C9.83606 2.78689 10.6557 1.96721 11.6393 1.96721H22.7869C23.3607 1.96721 23.7705 1.55738 23.7705 0.983607C23.7705 0.409836 23.2787 0 22.7049 0H11.6393C9.5082 0 7.86885 1.72131 7.86885 3.77049V8.03279H3.77049C1.72131 8.11475 0 9.83607 0 11.8852V41.1475C0 43.2787 1.72131 44.918 3.77049 44.918H25.7377C27.8688 44.918 29.5082 43.1967 29.5082 41.1475V40.1639C29.5082 39.5902 29.0984 39.1803 28.5246 39.1803C27.9508 39.1803 27.541 39.5902 27.541 40.1639V41.1475C27.541 42.1311 26.7213 42.9508 25.7377 42.9508H3.77049C2.78688 42.9508 1.96721 42.1311 1.96721 41.1475V11.8852C1.96721 10.9016 2.78688 10.082 3.77049 10.082H7.78688V33.1148C7.78688 35.2459 9.5082 36.8852 11.5574 36.8852H33.5246C35.6557 36.8852 37.2951 35.1639 37.2951 33.1148V10.082L37.0492 9.7541ZM27.8688 8.52459V3.36066L34.0164 9.5082H28.8525C28.3607 9.5082 27.8688 9.01639 27.8688 8.52459Z" fill="white"/>
<path d="M13.0328 23.8525C13.0328 24.4262 13.4426 24.8361 14.0164 24.8361H24.7541C25.3279 24.8361 25.7377 24.4262 25.7377 23.8525C25.7377 23.2787 25.3279 22.8689 24.7541 22.8689H14.0164C13.5246 22.8689 13.0328 23.2787 13.0328 23.8525Z" fill="white"/>
<path d="M13.0328 29.3443C13.0328 29.918 13.4426 30.3279 14.0164 30.3279H30.9836C31.5574 30.3279 31.9672 29.918 31.9672 29.3443C31.9672 28.7705 31.5574 28.3607 30.9836 28.3607H14.0164C13.5246 28.3607 13.0328 28.7705 13.0328 29.3443Z" fill="white"/>
<path d="M19.0164 16.4754C17.7049 16.4754 16.7213 15.8197 16.3934 14.7541C16.3115 14.4262 15.9836 14.1803 15.6557 14.1803H15.5738C15.082 14.1803 14.7541 14.5902 14.8361 15.082C15.1639 16.5574 16.3934 17.623 18.0328 17.8689V18.6066C18.0328 19.0164 18.3607 19.3443 18.7705 19.3443C19.1803 19.3443 19.5082 19.0164 19.5082 18.6066V17.9508C21.5574 17.7049 22.7869 16.3934 22.7869 14.5902C22.7869 10.5738 16.4754 12.459 16.4754 9.91804C16.4754 9.0164 17.2951 8.27869 18.6066 8.27869C19.7541 8.27869 20.6557 8.85246 20.9016 9.83607C20.9836 10.1639 21.3115 10.4098 21.6393 10.4098H21.7213C22.2131 10.4098 22.541 9.91804 22.459 9.42623C22.1311 8.11476 20.9836 7.13115 19.5082 6.88525V6.31148C19.5082 5.90164 19.1803 5.57378 18.7705 5.57378C18.3607 5.57378 18.0328 5.90164 18.0328 6.31148V6.88525C16.1475 7.13115 14.918 8.44263 14.918 10.1639C14.918 14.1803 21.2295 12.2951 21.2295 14.8361C21.2295 15.7377 20.4098 16.4754 19.0164 16.4754Z" fill="white"/>
</svg>
