<svg width="20" height="20" viewBox="0 0 20 20" fill="none" xmlns="http://www.w3.org/2000/svg">
<circle cx="10" cy="10" r="10" fill="#98A0A6"/>
<path d="M15 10C15 7.239 12.761 5 10 5C7.239 5 5 7.239 5 10C5 12.761 7.239 15 10 15C10.0294 15 10.0586 14.9994 10.0879 14.9989V11.1066H9.01367V9.85466H10.0879V8.93341C10.0879 7.86499 10.7401 7.28348 11.6932 7.28348C12.1496 7.28348 12.5419 7.3175 12.6562 7.33269V8.44933H11.9991C11.4806 8.44933 11.3802 8.69576 11.3802 9.05731V9.85466H12.6199L12.4583 11.1066H11.3802V14.8068C13.4701 14.2077 15 12.2823 15 10Z" fill="white"/>
</svg>
