<svg width="21" height="20" viewBox="0 0 21 20" fill="none" xmlns="http://www.w3.org/2000/svg">
<circle cx="10.1177" cy="10" r="10" fill="#98A0A6"/>
<path fill-rule="evenodd" clip-rule="evenodd" d="M15.0954 7.94152C15.0719 7.40991 14.986 7.04443 14.8628 6.72774C14.7358 6.39159 14.5403 6.09062 14.2843 5.84043C14.0341 5.58635 13.7311 5.38891 13.3989 5.26386C13.0803 5.14071 12.7168 5.05474 12.1852 5.0313C11.6496 5.00588 11.4796 5 10.1212 5C8.76281 5 8.59278 5.00588 8.05919 5.02932C7.52758 5.05276 7.16211 5.1388 6.84549 5.26187C6.50926 5.38891 6.2083 5.58436 5.95811 5.84043C5.70402 6.09062 5.50667 6.39357 5.38153 6.72584C5.25838 7.04443 5.17242 7.40792 5.14898 7.93953C5.12355 8.47511 5.11768 8.64513 5.11768 10.0035C5.11768 11.3619 5.12355 11.5319 5.14699 12.0655C5.17043 12.5971 5.25648 12.9626 5.37962 13.2793C5.50667 13.6154 5.70402 13.9164 5.95811 14.1666C6.2083 14.4207 6.51125 14.6181 6.84351 14.7432C7.16211 14.8663 7.5256 14.9523 8.05728 14.9757C8.5908 14.9992 8.7609 15.005 10.1193 15.005C11.4776 15.005 11.6477 14.9992 12.1813 14.9757C12.7129 14.9523 13.0783 14.8663 13.395 14.7432C14.0674 14.4832 14.599 13.9516 14.8589 13.2793C14.982 12.9607 15.068 12.5971 15.0915 12.0655C15.1149 11.5319 15.1208 11.3619 15.1208 10.0035C15.1208 8.64513 15.1188 8.47511 15.0954 7.94152ZM14.1944 12.0264C14.1729 12.515 14.0908 12.7789 14.0224 12.9548C13.8543 13.3907 13.5083 13.7366 13.0725 13.9047C12.8966 13.9731 12.6308 14.0552 12.1441 14.0766C11.6164 14.1002 11.4581 14.106 10.1232 14.106C8.78823 14.106 8.62798 14.1002 8.10217 14.0766C7.61355 14.0552 7.34969 13.9731 7.17379 13.9047C6.95689 13.8245 6.75945 13.6975 6.5992 13.5314C6.43307 13.3691 6.30602 13.1737 6.22586 12.9568C6.15745 12.7809 6.07538 12.515 6.05392 12.0284C6.03041 11.5007 6.02461 11.3423 6.02461 10.0074C6.02461 8.67247 6.03041 8.51221 6.05392 7.98649C6.07538 7.49786 6.15745 7.234 6.22586 7.0581C6.30602 6.84112 6.43307 6.64376 6.60118 6.48343C6.76334 6.3173 6.95879 6.19026 7.17577 6.11017C7.35168 6.04176 7.61752 5.95969 8.10416 5.93816C8.63187 5.91472 8.79022 5.90884 10.1251 5.90884C11.462 5.90884 11.6203 5.91472 12.1461 5.93816C12.6347 5.95969 12.8985 6.04176 13.0745 6.11017C13.2914 6.19026 13.4888 6.3173 13.649 6.48343C13.8152 6.64567 13.9422 6.84112 14.0224 7.0581C14.0908 7.234 14.1729 7.49977 14.1944 7.98649C14.2178 8.5142 14.2237 8.67247 14.2237 10.0074C14.2237 11.3423 14.2178 11.4987 14.1944 12.0264ZM10.1212 7.43359C8.70224 7.43359 7.55099 8.58476 7.55099 10.0038C7.55099 11.4228 8.70224 12.5739 10.1212 12.5739C11.5402 12.5739 12.6913 11.4228 12.6913 10.0038C12.6913 8.58476 11.5402 7.43359 10.1212 7.43359ZM10.1212 11.671C9.20064 11.671 8.45396 10.9244 8.45396 10.0038C8.45396 9.08316 9.20064 8.33656 10.1212 8.33656C11.0418 8.33656 11.7884 9.08316 11.7884 10.0038C11.7884 10.9244 11.0418 11.671 10.1212 11.671ZM12.793 7.9322C13.1244 7.9322 13.3931 7.66348 13.3931 7.33207C13.3931 7.00058 13.1244 6.73193 12.793 6.73193C12.4617 6.73193 12.193 7.00058 12.193 7.33207C12.193 7.66348 12.4617 7.9322 12.793 7.9322Z" fill="white"/>
</svg>
