<svg width="46" height="46" viewBox="0 0 46 46" fill="none" xmlns="http://www.w3.org/2000/svg">
<path d="M44.5492 19.7391C43.8731 19.063 42.9716 18.6874 41.9199 18.6874C40.9432 18.6874 40.0417 19.063 39.3656 19.8143L34.4825 24.8477C33.8815 24.0964 32.98 23.5705 31.9282 23.5705H22.2371C21.7863 23.5705 21.3356 23.4954 20.8848 23.27L20.7346 23.1949C19.6828 22.669 18.5559 22.3685 17.429 22.3685H15.7763C13.5225 22.3685 11.3439 23.3452 9.91653 25.073L7.66277 27.6273C6.53589 27.1765 5.18364 27.4019 4.20701 28.3034L0 32.6607L12.4708 45.1315L16.6778 40.9245C17.2788 40.3235 17.5793 39.4971 17.5793 38.6707C17.5793 38.2199 17.5042 37.7692 17.2788 37.3184L18.4808 36.1164C18.7813 35.8159 19.2321 35.6657 19.6828 35.6657H31.9282C34.1068 35.6657 36.1352 34.7642 37.5626 33.1114L44.7746 24.6974C45.9766 23.1949 45.9015 21.0163 44.5492 19.7391ZM15.4007 39.5722L12.4708 42.5021L2.55426 32.6607L5.48414 29.7308C6.01002 29.2049 6.91152 29.2049 7.4374 29.7308L15.4007 37.6941C15.626 37.9194 15.7763 38.2951 15.7763 38.6707C15.7763 39.0463 15.7012 39.3468 15.4007 39.5722ZM43.4224 23.4203L36.2103 31.8343C35.1586 33.0363 33.581 33.7876 32.0033 33.7876H19.6828C18.7813 33.7876 17.8798 34.1632 17.2037 34.8393L16.1519 35.8911L9.09015 28.8293L11.2688 26.3502C12.3957 24.9979 14.0484 24.2467 15.7763 24.2467H17.429C18.2554 24.2467 19.1569 24.472 19.9082 24.8477L20.0584 24.9228C20.7346 25.2984 21.4858 25.4487 22.2371 25.4487H31.8531C32.6795 25.4487 33.3556 26.1248 33.3556 26.9512C33.3556 27.7775 32.6795 28.4537 31.8531 28.4537H21.3356C20.8097 28.4537 20.4341 28.8293 20.4341 29.3552C20.4341 29.881 20.8097 30.2567 21.3356 30.2567H31.9282C33.7312 30.2567 35.2337 28.7542 35.2337 26.9512C35.2337 26.876 35.2337 26.8009 35.2337 26.7258L40.793 21.0163C41.1686 20.6406 41.6194 20.4904 42.0701 20.4904C42.5209 20.4904 43.0467 20.7158 43.3472 21.0163C43.9482 21.6173 44.0234 22.7442 43.4224 23.4203Z" fill="white"/>
<path d="M20.9599 14.4053C19.833 13.053 19.232 11.3251 19.232 9.52212C19.232 5.16486 22.7629 1.7091 27.0451 1.7091C28.0217 1.7091 28.9983 1.85935 29.8998 2.23497C30.2755 2.38523 30.7262 2.15985 30.8765 1.78422C31.0267 1.4086 30.8013 0.957846 30.4257 0.807596C29.3739 0.356845 28.2471 0.206594 27.0451 0.206594C21.8614 0.206594 17.7295 4.41361 17.7295 9.52212C17.7295 11.7008 18.4808 13.8043 19.833 15.457L17.8047 17.4854C17.429 17.861 17.429 18.3869 17.8047 18.7625C17.9549 18.9128 18.1803 19.063 18.4057 19.063C18.631 19.063 18.8564 18.9879 19.0067 18.7625L24.5659 13.2033C25.0167 13.5789 25.5426 13.8794 26.2187 14.0296V14.5555C26.2187 14.9311 26.5192 15.3068 26.9699 15.3068C27.4207 15.3068 27.7212 15.0063 27.7212 14.5555V14.1048C29.374 13.8794 30.4257 12.7525 30.4257 11.25C30.4257 9.97287 29.6745 9.44699 28.7729 9.07137L33.2053 4.63898C34.3322 5.99123 34.9332 7.71911 34.9332 9.52212C34.9332 13.8794 31.4023 17.3351 27.1202 17.3351C26.1436 17.3351 25.2421 17.1849 24.4157 16.8844C24.0401 16.7341 23.5893 16.9595 23.4391 17.3351C23.2888 17.7108 23.5142 18.1615 23.8898 18.3118C24.9416 18.6874 25.9933 18.9128 27.1202 18.9128C32.3038 18.9128 36.4357 14.7058 36.4357 9.59724C36.4357 7.41861 35.6845 5.31511 34.3322 3.66235L36.2855 1.55885C36.6611 1.18322 36.6611 0.657346 36.2855 0.28172C35.9098 -0.0939065 35.384 -0.0939065 35.0083 0.28172L29.4491 5.84098C28.9983 5.39023 28.3973 5.01461 27.7212 4.93948V4.56386C27.7212 4.18823 27.4207 3.8126 26.9699 3.8126C26.5192 3.8126 26.2187 4.1131 26.2187 4.56386V4.93948C24.6411 5.16486 23.6644 6.21661 23.6644 7.71911C23.6644 8.99624 24.4157 9.59725 25.3923 9.89775L20.9599 14.4053ZM28.9232 11.4754C28.9232 12.2266 28.2471 12.7525 27.1953 12.7525C26.5943 12.7525 26.0684 12.5271 25.6928 12.2266L27.5709 10.3485C28.3222 10.5739 28.9232 10.7992 28.9232 11.4754ZM25.2421 7.49374C25.2421 6.74249 25.9182 6.29174 26.8948 6.29174C27.4958 6.29174 28.0968 6.51711 28.3973 6.96786L26.6694 8.69574C25.9182 8.39524 25.2421 8.16987 25.2421 7.49374Z" fill="white"/>
</svg>
