<svg width="24" height="25" viewBox="0 0 24 25" fill="none" xmlns="http://www.w3.org/2000/svg">
<path d="M11.7758 24.0033C8.54292 24.0033 5.51209 22.7148 3.28948 20.344C1.06687 17.9732 -0.0949531 14.8293 0.00607466 11.5307C0.20813 5.70672 5.209 0.449671 10.9171 0.0373534C14.15 -0.220345 17.2818 0.861989 19.656 3.0782C19.959 3.38743 20.1611 3.79975 20.1611 4.21207C20.1611 4.62439 20.0096 5.08825 19.7065 5.39748L13.1397 12.0976C12.382 12.8707 11.1191 12.8707 10.3109 12.0976L6.92647 8.64449C6.6739 8.38679 6.6739 8.02601 6.92647 7.76831C7.17904 7.51061 7.53264 7.51061 7.78521 7.76831L11.1696 11.2215C11.4727 11.5307 11.9779 11.5307 12.2809 11.2215L18.8477 4.52131C18.9488 4.41823 18.9488 4.31515 18.9488 4.26361C18.9488 4.21207 18.9488 4.10899 18.8477 4.00591C16.7262 1.99586 13.8974 1.01661 11.0181 1.22277C5.9162 1.58354 1.42046 6.3252 1.21841 11.5822C1.11738 14.5716 2.17817 17.3547 4.14821 19.4678C6.16877 21.581 8.846 22.7664 11.7758 22.7664C17.1808 22.7664 21.727 18.6432 22.2827 13.18C22.3332 12.7677 22.3332 12.4069 22.3332 11.9946C22.3332 11.6338 22.5858 11.3761 22.9394 11.3761C23.293 11.3761 23.5455 11.6338 23.5455 11.9946C23.5455 12.4584 23.5455 12.8707 23.495 13.3346C22.8383 19.4163 17.787 24.0033 11.7758 24.0033Z" fill="#00C2BB"/>
<path d="M11.7251 17.0456C10.3107 17.0456 8.84578 16.4786 7.78499 15.3963L5.56238 13.1285C5.30981 12.8708 5.30981 12.5101 5.56238 12.2524C5.81495 11.9947 6.16855 11.9947 6.42112 12.2524L8.64373 14.5201C10.3612 16.2725 13.1395 16.2725 14.8569 14.5201L21.8278 7.40763C22.0804 7.14993 22.434 7.14993 22.6866 7.40763C22.9391 7.66533 22.9391 8.02611 22.6866 8.28381L15.6651 15.3963C14.6044 16.4786 13.1395 17.0456 11.7251 17.0456Z" fill="#61CC39"/>
<path d="M7.38101 9.31505C7.96687 9.31505 8.44181 8.83048 8.44181 8.23272C8.44181 7.63497 7.96687 7.15039 7.38101 7.15039C6.79515 7.15039 6.32022 7.63497 6.32022 8.23272C6.32022 8.83048 6.79515 9.31505 7.38101 9.31505Z" fill="#00C1BB"/>
<path d="M22.9392 13.0778C23.525 13.0778 24 12.5932 24 11.9954C24 11.3977 23.525 10.9131 22.9392 10.9131C22.3533 10.9131 21.8784 11.3977 21.8784 11.9954C21.8784 12.5932 22.3533 13.0778 22.9392 13.0778Z" fill="#00C1BB"/>
<path d="M5.96661 13.7985C6.55247 13.7985 7.0274 13.3139 7.0274 12.7161C7.0274 12.1184 6.55247 11.6338 5.96661 11.6338C5.38076 11.6338 4.90582 12.1184 4.90582 12.7161C4.90582 13.3139 5.38076 13.7985 5.96661 13.7985Z" fill="#61CC39"/>
<path d="M22.232 8.90246C22.8179 8.90246 23.2928 8.41788 23.2928 7.82013C23.2928 7.22237 22.8179 6.73779 22.232 6.73779C21.6462 6.73779 21.1713 7.22237 21.1713 7.82013C21.1713 8.41788 21.6462 8.90246 22.232 8.90246Z" fill="#61CC39"/>
</svg>
