<svg width="46" height="48" viewBox="0 0 46 48" fill="none" xmlns="http://www.w3.org/2000/svg">
<path d="M45.3574 12.9897L33.1288 0.282937C32.9547 0.102187 32.7145 0 32.4636 0H14.2377C12.198 0 10.5385 1.65881 10.5385 3.69769V16.6154H3.15221C1.62614 16.6154 0.384613 17.8566 0.384613 19.3822V33.2332C0.384613 34.7588 1.62614 36 3.15221 36H10.5385V44.3088C10.5385 46.3441 12.198 48 14.2377 48H41.9162C43.9559 48 45.6154 46.345 45.6154 44.3108V13.6298C45.6154 13.3912 45.5229 13.1618 45.3574 12.9897ZM32.6924 2.49197L42.731 12.9231H32.6924V2.49197ZM3.15221 34.1539C2.64408 34.1539 2.23083 33.7409 2.23083 33.2332V19.3822C2.23083 18.8746 2.64418 18.4615 3.15221 18.4615H28.0786C28.5868 18.4615 29 18.8746 29 19.3822V33.2332C29 33.7409 28.5867 34.1539 28.0786 34.1539H3.15221ZM43.7692 44.3108C43.7692 45.3271 42.9379 46.1539 41.9161 46.1539H14.2377C13.2159 46.1539 12.3846 45.3262 12.3846 44.3089V36H28.0786C29.6047 36 30.8462 34.7588 30.8462 33.2332V19.3822C30.8462 17.8566 29.6047 16.6154 28.0786 16.6154H12.3846V3.69769C12.3846 2.67666 13.2159 1.84612 14.2377 1.84612H30.8461V13.8461C30.8461 14.3559 31.2595 14.7692 31.7692 14.7692H43.7692V44.3108Z" fill="#0DCFCF"/>
<path d="M11.4201 23.4276C11.1136 23.0292 10.7332 22.7704 10.2789 22.6514C9.98319 22.5721 9.34859 22.5325 8.375 22.5325H5.80588V30.4616H7.40684V27.4706H8.45075C9.17553 27.4706 9.72903 27.4327 10.1112 27.3569C10.3925 27.2956 10.6692 27.1704 10.9415 26.981C11.2137 26.7917 11.4382 26.5312 11.6149 26.1995C11.7916 25.8678 11.8799 25.4585 11.8799 24.9717C11.8798 24.3407 11.7266 23.826 11.4201 23.4276ZM10.049 25.61C9.92825 25.7867 9.76147 25.9165 9.54866 25.9994C9.33584 26.0824 8.91406 26.1238 8.28303 26.1238H7.40684V23.8738H8.18028C8.75722 23.8738 9.14122 23.8918 9.33228 23.9279C9.59188 23.9748 9.80647 24.092 9.97587 24.2795C10.1454 24.467 10.2301 24.705 10.2301 24.9934C10.2302 25.2278 10.1698 25.4333 10.049 25.61Z" fill="#0DCFCF"/>
<path d="M19.5763 24.6987C19.4033 24.192 19.1508 23.7639 18.8191 23.4141C18.4874 23.0643 18.0889 22.8209 17.6238 22.6839C17.2777 22.5829 16.7746 22.5325 16.1148 22.5325H13.1887V30.4616H16.2013C16.7927 30.4616 17.265 30.4057 17.6184 30.2938C18.0908 30.1424 18.4658 29.9315 18.7434 29.661C19.1112 29.304 19.3942 28.8372 19.5926 28.2602C19.7548 27.7878 19.8359 27.2253 19.8359 26.5727C19.8359 25.8299 19.7494 25.2053 19.5763 24.6987ZM18.0186 27.9547C17.9104 28.3099 17.7707 28.565 17.5994 28.72C17.4282 28.875 17.2127 28.985 16.9531 29.0499C16.7548 29.1004 16.4321 29.1256 15.985 29.1256H14.7897V23.8738H15.509C16.1616 23.8738 16.5998 23.8991 16.8233 23.9496C17.1225 24.0145 17.3696 24.1389 17.5643 24.3228C17.759 24.5067 17.9104 24.7627 18.0186 25.0908C18.1268 25.4189 18.1809 25.8895 18.1809 26.5025C18.1809 27.1154 18.1268 27.5995 18.0186 27.9547Z" fill="#0DCFCF"/>
<path d="M26.64 23.8738V22.5325H21.2043V30.4616H22.8053V27.092H26.1154V25.7506H22.8053V23.8738H26.64Z" fill="#0DCFCF"/>
</svg>
