<svg width="24" height="23" viewBox="0 0 24 23" fill="none" xmlns="http://www.w3.org/2000/svg">
<path d="M11.8151 23C8.65823 23 5.69062 21.8051 3.46145 19.6309C1.22766 17.4611 0 14.5727 0 11.5C0 8.42734 1.22766 5.53887 3.46145 3.36914C5.69062 1.19492 8.65823 0 11.8151 0C14.9719 0 17.9395 1.19492 20.1687 3.36914C22.4025 5.54336 23.6301 8.42734 23.6301 11.5C23.6301 13.7686 22.9378 15.9787 21.6271 17.8834C21.3456 18.2967 20.7687 18.409 20.3487 18.1305C19.9241 17.8564 19.8133 17.2949 20.0948 16.8861C21.1979 15.2734 21.784 13.4137 21.784 11.5C21.784 6.1498 17.3118 1.79688 11.8151 1.79688C6.31829 1.79688 1.8461 6.1498 1.8461 11.5C1.8461 16.8502 6.31829 21.2031 11.8151 21.2031C13.6381 21.2031 15.4196 20.718 16.9703 19.8061C17.4042 19.55 17.9718 19.6848 18.2395 20.107C18.5026 20.5293 18.3641 21.0818 17.9303 21.3424C16.0888 22.425 13.975 23 11.8151 23ZM10.832 16.1988L16.038 13.2564C16.6888 12.8881 17.0765 12.2322 17.0765 11.5C17.0765 10.7678 16.6888 10.1119 16.038 9.74355L10.832 6.80117C10.1813 6.43281 9.4059 6.43281 8.75515 6.79668C8.09978 7.16504 7.7121 7.8209 7.7121 8.55762V14.4424C7.7121 15.1791 8.1044 15.835 8.75515 16.2033C9.07822 16.3875 9.43359 16.4773 9.79358 16.4773C10.1443 16.4729 10.5043 16.383 10.832 16.1988ZM9.90435 8.35547L15.1104 11.2979C15.2073 11.3518 15.2304 11.4371 15.2304 11.5C15.2304 11.5629 15.2119 11.6482 15.1104 11.7021L9.90435 14.6445C9.80743 14.6984 9.72436 14.676 9.67359 14.6445C9.6182 14.6131 9.55359 14.5547 9.55359 14.4424V8.55762C9.55359 8.44531 9.6182 8.38691 9.67359 8.35547C9.70128 8.3375 9.74282 8.32402 9.78897 8.32402C9.82589 8.32402 9.86281 8.33301 9.90435 8.35547Z" fill="white"/>
</svg>
