<svg xmlns="http://www.w3.org/2000/svg" width="220" height="52" fill="none" viewBox="0 0 220 52">
    <path fill="#848C8C" d="M107.043 39.737c-.329-.11-.658-.11-.877-.11-.328 0-.657.11-.876.22-.219.109-.329.328-.329.547 0 .22.11.438.219.548.11.11.329.219.548.328.219.11.438.22.767.33.438.109.767.218 1.096.437.219.11.547.329.657.548.219.22.328.548.328.986 0 .329-.109.657-.328.986-.219.329-.438.438-.877.657-.328.11-.766.22-1.205.22-.438 0-.986-.11-1.424-.33-.438-.218-.876-.438-1.205-.766l.438-.767c.329.329.658.548.986.657.329.11.767.22 1.096.22.438 0 .767-.11.986-.22.219-.219.328-.438.328-.657 0-.22-.109-.438-.219-.548-.109-.11-.328-.219-.547-.328-.219-.11-.439-.22-.877-.329-.438-.11-.767-.22-1.095-.329-.219-.11-.548-.328-.658-.547-.219-.22-.328-.548-.328-.986 0-.329.109-.658.328-.877.22-.219.439-.438.767-.657.329-.22.767-.22 1.205-.22.438 0 .767.11 1.096.22.328.11.657.22.986.438l-.329.767c0-.22-.329-.329-.657-.438zM118.107 39.19c.548.328.877.656 1.205 1.204.329.548.439 1.096.439 1.643 0 .548-.11 1.205-.439 1.644-.328.547-.657.876-1.205 1.205-.547.328-1.095.438-1.753.438-.657 0-1.205-.11-1.752-.438-.548-.329-.877-.658-1.205-1.205-.329-.548-.439-1.096-.439-1.644 0-.547.11-1.205.439-1.643.328-.548.657-.876 1.205-1.205.547-.329 1.095-.438 1.752-.438.658 0 1.315.11 1.753.438zm-2.958.656c-.328.22-.657.548-.876.877-.219.328-.329.767-.329 1.205 0 .438.11.876.329 1.205.219.328.548.657.876.876.329.22.767.329 1.205.329.439 0 .877-.11 1.206-.329.328-.219.657-.547.876-.876.219-.329.329-.767.329-1.205 0-.438-.11-.877-.329-1.205-.219-.329-.548-.658-.876-.877-.329-.219-.767-.328-1.206-.328-.328 0-.766.11-1.205.328zM124.79 38.75h.876v5.588h2.848v.767h-3.724V38.75zM134.54 44.01c.328.328.767.547 1.314.547.548 0 .986-.22 1.315-.548.329-.328.438-.767.438-1.424v-3.834h.876v3.834c0 .877-.219 1.534-.766 1.972-.439.438-1.096.767-1.972.767-.877 0-1.534-.22-1.972-.767-.438-.438-.767-1.096-.767-1.972v-3.834h.876v3.834c.11.657.329 1.096.658 1.424zM143.085 38.75h5.039v.768h-2.082v5.587h-.876v-5.587h-2.081v-.767zM152.834 38.75h.877v6.464h-.877v-6.463zM163.789 39.19c.548.328.877.656 1.205 1.204.329.548.439 1.096.439 1.643 0 .548-.11 1.205-.439 1.644-.328.438-.657.876-1.205 1.205-.547.328-1.095.438-1.752.438-.658 0-1.205-.11-1.753-.438-.548-.329-.877-.658-1.205-1.205-.329-.548-.438-1.096-.438-1.644 0-.547.109-1.205.438-1.643.328-.548.657-.876 1.205-1.205.548-.329 1.095-.438 1.753-.438.657 0 1.205.11 1.752.438zm-2.957.656c-.329.22-.658.548-.877.877-.219.328-.328.767-.328 1.205 0 .438.109.876.328 1.205.219.328.548.657.877.876.328.22.766.329 1.205.329.438 0 .876-.11 1.205-.329.328-.219.657-.547.876-.876.219-.329.329-.767.329-1.205 0-.438-.11-.877-.329-1.205-.219-.329-.548-.658-.876-.877-.329-.219-.767-.328-1.205-.328-.439 0-.877.11-1.205.328zM174.963 38.75h.877v6.464h-.877l-3.724-5.039v5.04h-.877V38.75h.877l3.724 5.04v-5.04zM184.166 39.737c-.329-.11-.658-.11-.877-.11-.328 0-.657.11-.876.22-.219.109-.329.328-.329.547 0 .22.11.438.219.548.11.11.329.219.548.328.219.11.438.22.767.33.438.109.767.218 1.095.437.219.11.548.329.658.548.219.22.328.548.328.986 0 .329-.109.657-.328.986-.219.329-.439.438-.877.657-.328.11-.767.22-1.205.22-.438 0-.986-.11-1.424-.33-.438-.218-.876-.438-1.205-.766l.438-.767c.329.329.657.548.986.657.329.11.767.22 1.096.22.438 0 .766-.11.986-.22.219-.219.328-.438.328-.657 0-.22-.109-.438-.219-.548-.109-.11-.329-.219-.548-.328-.219-.11-.438-.22-.876-.329-.438-.11-.767-.22-1.096-.329-.219-.11-.547-.328-.657-.547-.219-.22-.328-.548-.328-.986 0-.329.109-.658.328-.877.219-.219.438-.438.767-.657.329-.11.767-.22 1.205-.22.438 0 .767.11 1.096.22.328.11.657.22.986.438l-.329.767c0-.22-.329-.329-.657-.438z"/>
    <path fill="#596566" d="M88.858 29.22L85.9 26.262c-1.644 1.205-3.725 1.863-6.026 1.863-5.915 0-10.516-4.82-10.516-10.736s4.6-10.736 10.516-10.736c6.026 0 10.627 4.82 10.627 10.736 0 2.738-.986 5.258-2.739 7.23l2.848 2.848-1.752 1.753zm-4.711-4.71l-2.958-2.958 1.753-1.753 3.067 3.067c1.205-1.424 1.863-3.396 1.863-5.477 0-4.601-3.506-8.326-7.998-8.326-4.491 0-7.997 3.834-7.997 8.326 0 4.491 3.506 8.326 7.998 8.326 1.533 0 3.067-.439 4.272-1.206zM106.385 12.897v14.899h-2.41l-.109-2.63c-1.424 1.644-3.287 2.959-5.916 2.959-3.396 0-5.587-2.301-5.587-6.464v-8.764h2.52v7.669c0 3.724 1.643 5.149 3.944 5.149 3.505 0 4.929-3.068 4.929-5.259v-7.559h2.629zM116.135 12.569c2.849 0 5.04 1.643 6.026 3.724l.109-3.396h2.41v14.899h-2.41l-.109-3.396c-.986 2.081-3.177 3.725-6.026 3.725-4.272 0-7.559-3.506-7.559-7.778 0-4.273 3.177-7.779 7.559-7.779zm.329 13.146c3.067 0 5.368-2.41 5.368-5.368 0-2.849-2.301-5.368-5.368-5.368s-5.368 2.41-5.368 5.368c0 2.957 2.301 5.367 5.368 5.367zM130.377 27.796h-2.52V5.666h2.52v22.13zM133.225 8.953c0-.876.657-1.424 1.424-1.424.877 0 1.424.658 1.424 1.424 0 .767-.657 1.425-1.424 1.425-.767 0-1.424-.548-1.424-1.425zm2.739 18.843h-2.52V12.897h2.52v14.899zM145.714 15.307h-3.068v12.489h-2.519V15.307h-2.082v-2.41h2.082V8.515h2.519v4.382h3.068v2.41zM149.658 12.897l5.148 11.722 5.04-11.722h2.738l-9.421 21.691h-2.629l2.958-6.792-6.464-14.899h2.63z"/>
    <path fill="#7B8485" d="M174.635 9.501h-5.149v18.514h-2.52V9.501h-5.148v-2.41h12.817v2.41zM188.876 21.332h-12.379c.11 2.74 2.082 4.711 5.149 4.711 2.41 0 3.944-1.314 4.601-2.629l2.191.329c-.548 2.081-2.848 4.6-6.792 4.6-4.492 0-7.669-3.286-7.669-7.887 0-4.163 3.068-7.668 7.45-7.668 4.601 0 7.449 3.724 7.449 7.887v.657zm-12.379-1.862h9.86c-.11-2.3-1.972-4.491-4.93-4.491-2.848.11-4.93 2.081-4.93 4.491zM198.955 15.198c-2.848 0-5.478 2.3-5.478 5.368 0 3.177 2.63 5.368 5.478 5.368 1.643 0 3.067-.658 4.272-1.863v2.52c-1.095 1.095-2.739 1.753-4.71 1.753-4.382 0-7.669-3.506-7.669-7.778 0-4.163 3.396-7.778 7.669-7.778 1.862 0 3.505.657 4.71 1.752v2.41c-1.205-1.095-2.629-1.752-4.272-1.752zM219.988 19.251v8.764h-2.519v-7.669c0-3.724-1.644-5.148-3.944-5.148-3.506 0-4.93 3.067-4.93 5.258v7.559h-2.519V5.886h2.519v9.75c1.315-1.643 3.287-2.848 5.806-2.848 3.506 0 5.587 2.3 5.587 6.463z"/>
    <path fill="#00C2BB" d="M25.538 51.02c-7.011 0-13.584-2.739-18.404-7.778-4.82-5.04-7.34-11.722-7.12-18.733C.45 12.129 11.296.956 23.675.079c7.011-.547 13.803 1.753 18.952 6.464.657.657 1.095 1.534 1.095 2.41 0 .876-.328 1.862-.986 2.52L28.496 25.713c-1.643 1.643-4.382 1.643-6.135 0l-7.34-7.34c-.547-.548-.547-1.314 0-1.862.548-.548 1.315-.548 1.863 0l7.34 7.34c.657.657 1.752.657 2.41 0L40.875 9.61c.22-.219.22-.438.22-.548 0-.11 0-.328-.22-.547-4.6-4.273-10.736-6.354-16.98-5.916-11.064.767-20.814 10.845-21.253 22.02-.219 6.353 2.082 12.269 6.354 16.76 4.382 4.492 10.188 7.012 16.542 7.012 11.722 0 21.581-8.764 22.787-20.376.109-.877.109-1.644.109-2.52 0-.767.548-1.315 1.315-1.315.767 0 1.314.548 1.314 1.315 0 .986 0 1.862-.11 2.848C49.53 41.27 38.576 51.02 25.539 51.02z"/>
    <path fill="#61CC39" d="M25.428 36.231c-3.067 0-6.244-1.205-8.544-3.505l-4.82-4.82c-.548-.548-.548-1.315 0-1.863.547-.547 1.314-.547 1.862 0l4.82 4.82c3.725 3.725 9.75 3.725 13.474 0l15.118-15.117c.548-.548 1.315-.548 1.863 0 .547.547.547 1.314 0 1.862L33.973 32.726c-2.3 2.3-5.477 3.505-8.545 3.505z"/>
    <path fill="#00C1BB" d="M16.007 19.799c1.27 0 2.3-1.03 2.3-2.3 0-1.271-1.03-2.301-2.3-2.301-1.27 0-2.3 1.03-2.3 2.3 0 1.271 1.03 2.301 2.3 2.301zM49.748 27.796c1.27 0 2.3-1.03 2.3-2.3 0-1.271-1.03-2.301-2.3-2.301-1.27 0-2.3 1.03-2.3 2.3 0 1.271 1.03 2.301 2.3 2.301z"/>
    <path fill="#61CC39" d="M12.94 29.33c1.27 0 2.3-1.03 2.3-2.3 0-1.271-1.03-2.301-2.3-2.301-1.27 0-2.3 1.03-2.3 2.3 0 1.27 1.03 2.3 2.3 2.3zM48.215 18.923c1.27 0 2.3-1.03 2.3-2.301 0-1.27-1.03-2.3-2.3-2.3-1.27 0-2.3 1.03-2.3 2.3 0 1.27 1.03 2.3 2.3 2.3z"/>
</svg>
