<svg width="46" height="45" viewBox="0 0 46 45" fill="none" xmlns="http://www.w3.org/2000/svg">
<path d="M40.1699 19.8837H34.7764V36.7889H38.5599V37.7549C38.5599 39.2844 37.3524 40.4919 35.8229 40.4919H28.0143C27.9338 38.9624 26.6458 37.6744 25.0358 37.6744H21.0912C19.4812 37.6744 18.1127 39.0429 18.1127 40.6529V42.0215C18.1127 43.6315 19.4812 45 21.0912 45H25.0358C26.4848 45 27.7728 43.873 27.9338 42.5045H35.7424C38.3184 42.5045 40.4114 40.4114 40.4114 37.8354V36.8694C43.3095 36.7084 45.5635 34.3739 45.5635 31.4758V25.4383C45.644 22.2987 43.1485 19.8837 40.1699 19.8837ZM26.0823 42.0215C26.0823 42.585 25.5993 43.068 25.0358 43.068H21.0912C20.5277 43.068 20.0447 42.585 20.0447 42.0215V40.6529C20.0447 40.0894 20.5277 39.6064 21.0912 39.6064H25.0358C25.5993 39.6064 26.0823 40.0894 26.0823 40.6529V42.0215ZM43.712 31.3148C43.712 33.2469 42.102 34.8569 40.1699 34.8569H36.7084V21.8157H40.1699C42.102 21.8157 43.712 23.4258 43.712 25.3578V31.3148Z" fill="white"/>
<path d="M25.5188 29.7048C25.7603 29.8658 26.0018 30.0268 26.3238 30.0268C26.4848 30.0268 26.6458 30.0268 26.8068 29.9463C27.2093 29.7853 27.5313 29.3828 27.5313 28.8998V27.0483H29.6243C30.5903 27.0483 31.3953 26.2433 31.3953 25.2773V17.6297C31.3953 16.6637 30.5903 15.8587 29.6243 15.8587H16.5832C15.6172 15.8587 14.8122 16.6637 14.8122 17.6297V25.1968C14.8122 26.1628 15.6172 26.9678 16.5832 26.9678H22.3792L25.5188 29.7048ZM16.7442 17.7102H29.4633V25.0358H26.9678C26.2433 25.0358 25.5993 25.6798 25.5993 26.4043V27.1288L23.6673 25.4383C23.3453 25.1163 22.9427 24.9553 22.4597 24.9553H16.7442V17.7102Z" fill="white"/>
<path d="M27.2093 21.2522C27.2093 20.6887 26.8068 20.2862 26.2433 20.2862H19.7227C19.1592 20.2862 18.7567 20.6887 18.7567 21.2522C18.7567 21.8157 19.1592 22.2182 19.7227 22.2182H26.2433C26.8068 22.2182 27.2093 21.8157 27.2093 21.2522Z" fill="white"/>
<path d="M17.3882 7.48658C20.8497 5.55456 25.3578 5.55456 28.7388 7.56708C29.1413 7.80859 29.6243 7.96959 30.1073 7.96959C30.8318 7.96959 31.5563 7.64758 32.0394 7.08408L33.2469 5.63506C36.4669 8.37209 38.5599 12.3971 38.5599 16.9052C38.5599 17.4687 38.9624 17.8712 39.5259 17.8712C40.0894 17.8712 40.4919 17.4687 40.4919 16.9052C40.4919 11.5116 37.8354 6.68157 33.8104 3.62254C33.8104 3.62254 33.8104 3.62254 33.7299 3.62254C30.7513 1.28801 27.0483 0 23.1038 0C19.0787 0 15.3757 1.36852 12.4776 3.54204C12.4776 3.54204 12.4776 3.54204 12.3971 3.54204C8.29159 6.68157 5.71556 11.5116 5.71556 16.9052V19.8837H5.47406C2.49553 19.8837 0 22.2987 0 25.3578V31.3953C0 34.3739 2.49553 36.8694 5.47406 36.8694H6.60107C7.16458 36.8694 7.56708 36.4669 7.56708 35.9034C7.56708 35.3399 7.16458 34.9374 6.60107 34.9374H5.47406C3.46154 34.9374 1.93202 33.4079 1.93202 31.3953V25.3578C1.93202 23.4258 3.54204 21.8157 5.47406 21.8157H8.9356V35.8229C8.9356 36.3864 9.3381 36.7889 9.90161 36.7889C10.4651 36.7889 10.8676 36.3864 10.8676 35.8229V19.8837H7.64758V16.9052C7.64758 12.3971 9.74061 8.37209 12.9606 5.63506L14.1682 6.92308C14.8927 7.88909 16.2612 8.05009 17.3882 7.48658ZM23.1038 1.93202C26.3238 1.93202 29.2218 2.89803 31.7174 4.50805L30.5903 5.71556C30.3488 5.95707 30.0268 6.03757 29.7048 5.87656C27.6923 4.66905 25.3578 4.02504 23.0233 4.02504C20.6887 4.02504 18.4347 4.58855 16.4222 5.79606C16.1002 5.95707 15.7782 5.87656 15.5367 5.63506L14.4902 4.50805C16.9052 2.89803 19.8837 1.93202 23.1038 1.93202Z" fill="white"/>
</svg>
